<?xml version="1.0" standalone="no"?>
<!DOCTYPE svg PUBLIC "-//W3C//DTD SVG 20010904//EN"
    "http://www.w3.org/TR/2001/REC-SVG-20010904/DTD/svg10.dtd">
<svg version="1.0" xmlns="http://www.w3.org/2000/svg"
     width="700.000000pt" height="700.000000pt" viewBox="0 0 700.000000 700.000000"
     preserveAspectRatio="xMidYMid meet">
<g transform="translate(0.000000,700.000000) scale(0.100000,-0.100000)"
   fill="#000000" stroke="none">
<path d="M986 6329 c-114 -27 -233 -129 -289 -246 l-32 -68 -6 -350 c-12 -599
-10 -4586 1 -4646 35 -184 184 -328 370 -358 91 -15 4849 -15 4940 0 186 30
335 174 370 358 11 60 13 4046 2 4647 l-7 350 -37 75 c-46 93 -122 168 -215
212 l-68 32 -2495 2 c-1483 0 -2511 -3 -2534 -8z m1017 -1189 l287 -155 0
-100 0 -100 -366 -215 c-201 -118 -370 -216 -375 -218 -5 -2 -9 52 -9 120 l0
123 261 140 c144 78 261 145 261 149 0 5 -117 64 -259 132 l-258 122 -3 126
-3 126 88 -47 c49 -27 218 -118 376 -203z m1387 -1095 l0 -105 -435 0 -435 0
0 105 0 105 435 0 435 0 0 -105z"/>
</g>
</svg>
